PathFileType	4	(X/Y/Z)	C:/Users/beibeiliu/ov580/test_trc/User2\sequence.34_training_dense_left.trc
DataRate	CameraRate	NumFrames	NumMarkers	Units	OrigDataRate	OrigDataStartFrame	OrigNumFrames
120	120	17	19	mm	120	121	144
Frame#	Time	ThumbCMC			ThumbMCP			ThumbIP			ThumbTip			IndexMCP			IndexPIP			IndexTip			MiddleMCP			MiddlePIP			MiddleTip			RingMCP			RingPIP			RingTip			PinkyMCP			PinkyPIP			PinkyTip			BackHand1			BackHand2			BackHand3	
		X0	Y0	Z0	X1	Y1	Z1	X2	Y2	Z2	X3	Y3	Z3	X4	Y4	Z4	X5	Y5	Z5	X6	Y6	Z6	X7	Y7	Z7	X8	Y8	Z8	X9	Y9	Z9	X10	Y10	Z10	X11	Y11	Z11	X12	Y12	Z12	X13	Y13	Z13	X14	Y14	Z14	X15	Y15	Z15	X16	Y16	Z16	X17	Y17	Z17	X18	Y18	Z18	
120	1	-155.25	24.7438	-32.9053	-122.214	28.5428	-51.287	-94.6508	29.5603	-75.7901	-77.824	23.488	-92.0578	-159.67	20.8044	-117.284	-130.458	25.5589	-123.84	-118.41	28.7	-89.5505	-148.062	-1.84756	-118.555	-113.049	8.93586	-111.286	-122.278	6.75572	-74.4336	-139.688	-17.6923	-115.589	-109.777	-8.3664	-110.285	-122.071	-9.83002	-72.0531	-132.294	-35.478	-106.499	-105.838	-20.205	-97.6891	-114.016	-18.2084	-70.0185	-177.785	-37.2771	-65.9614	-183.869	-41.9264	-34.0746	-190.296	-0.788977	-49.4977	
121	1.00833	-153.781	26.4306	-33.901	-119.971	29.8649	-48.5613	-92.2453	33.5899	-71.9775	-71.4211	28.4951	-92.8545	-158.862	19.4811	-116.608	-129.793	24.7334	-123.359	-121.406	23.7939	-85.3937	-144.876	0.114381	-121.652	-115.08	10.2302	-114.84	-121.949	5.06497	-74.5744	-137.428	-21.6205	-116.62	-108.605	-12.3951	-109.092	-121.087	-10.8648	-74.3967	-134.919	-40.5978	-105.24	-105.184	-25.4197	-101.49	-114.561	-21.1436	-70.7224	-177.269	-33.8338	-68.9565	-184.809	-41.2425	-32.51	-191.475	-2.30594	-47.5764	
122	1.01667	-155.534	22.3887	-32.3316	-121.28	30.8359	-50.065	-90.438	40.2712	-69.9784	-71.1609	37.9117	-86.5329	-158.543	20.6485	-118.492	-130.439	25.409	-123.802	-120.19	27.0956	-89.7114	-147.01	-0.737074	-121.646	-114.391	8.63235	-113.701	-124.788	9.11757	-74.0796	-136.24	-21.2292	-118.642	-108.25	-12.162	-108.837	-120.218	-11.4783	-75.75	-132.906	-40.873	-109.158	-106.9	-25.9042	-103.108	-118.131	-19.0523	-72.9525	-177.153	-36.5234	-70.6525	-187.74	-41.0834	-34.0949	-190.92	-0.592101	-47.6737	
123	1.025	-155.316	27.7415	-33.8726	-122.364	35.9977	-50.3173	-95.7211	44.8107	-68.1196	-74.2027	50.0388	-78.9968	-159.785	23.0301	-115.764	-126.339	23.4888	-121.926	-121.984	25.8863	-84.7805	-147.327	0.980564	-121.291	-113.287	4.00719	-113.488	-122.852	7.37543	-75.2424	-140.812	-19.3198	-116.303	-109.389	-13.1238	-109.29	-122.894	-10.9539	-74.6497	-137.79	-40.8586	-104.995	-108.696	-25.7522	-102.649	-113.598	-23.0897	-71.9398	-178.853	-36.4698	-65.8303	-188.135	-37.3129	-36.2468	-191.104	-4.11687	-46.4265	
124	1.03333	-158.656	27.0081	-33.0924	-130.82	38.5581	-48.0592	-106.243	58.7273	-66.172	-87.51	64.2142	-78.9119	-158.528	18.4349	-115.06	-128.364	19.6765	-123.355	-120.087	22.0576	-86.8758	-148.74	1.64991	-120.468	-112.453	2.99336	-113.501	-120.759	5.0206	-75.292	-140.098	-22.3132	-116.667	-110.326	-13.2615	-112.134	-123.782	-9.899	-74.6086	-137.344	-43.7958	-104.882	-108.226	-27.783	-101.388	-115.877	-23.509	-69.9419	-180.481	-32.1499	-69.0086	-189.958	-39.745	-33.7114	-189.509	-2.14229	-45.6741	
125	1.04167	-165.014	28.5043	-32.0394	-143.022	46.5021	-45.6596	-124.238	66.2451	-66.9762	-108.954	76.6458	-83.5962	-160.09	20.1937	-114.33	-127.955	23.163	-123.895	-119.916	22.154	-86.2646	-146.265	1.23908	-122.669	-112.975	2.62874	-113.959	-121.435	2.31793	-73.9363	-139.519	-22.8735	-117.599	-109.84	-10.9636	-107.454	-121.788	-13.2602	-73.0101	-138.012	-42.8092	-104.35	-108.189	-27.4678	-101.318	-115.083	-24.3073	-69.7468	-180.967	-35.3642	-69.0357	-191.129	-38.3116	-37.155	-191.246	-1.4235	-47.3403	
126	1.05	-169.621	27.6171	-32.1542	-156.585	44.863	-49.374	-145.273	69.1458	-77.7864	-133.823	80.4249	-94.1622	-157.288	18.7724	-118.686	-126.824	21.9253	-121.636	-123.4	19.8647	-82.3771	-150.492	-4.07292	-119.427	-115.081	4.83693	-117.681	-118.018	4.81906	-76.449	-135.937	-23.5623	-118.952	-110.679	-14.4658	-108.139	-120.608	-11.6673	-74.458	-136.99	-45.7277	-104.522	-109.411	-27.9542	-102.513	-116.509	-23.5907	-69.282	-182.598	-35.5884	-70.6913	-189.587	-39.6934	-32.3912	-193.241	-5.06771	-50.6012	
127	1.05833	-173.1	25.5219	-32.2338	-164.709	47.6698	-51.9637	-158.073	62.9547	-81.209	-151.885	79.9798	-104.062	-156.639	14.718	-117.894	-127.197	20.3563	-120.837	-125.463	19.8474	-81.3733	-147.34	-1.21177	-122.174	-113.725	2.3997	-113.789	-121.434	2.60737	-73.5071	-136.992	-23.5406	-117.549	-110.047	-16.995	-107.815	-124.721	-9.76216	-72.175	-135.415	-46.6635	-104.339	-105.464	-31.9678	-99.018	-117.657	-22.3176	-68.2072	-182.884	-35.949	-65.5183	-191.202	-40.102	-36.8887	-193.021	-6.81046	-51.4224	
128	1.06667	-174.097	24.324	-32.3522	-169.002	44.9149	-54.3511	-165.921	61.6068	-85.042	-160.336	76.0486	-103.593	-159.544	14.069	-116.19	-126.709	19.0675	-119.282	-125.872	23.6439	-85.8405	-146.608	-4.54136	-121.98	-113.601	3.18137	-113.748	-123.114	1.21135	-74.2536	-135.937	-24.4494	-118.249	-110.504	-16.2055	-108.683	-125.441	-10.7959	-72.1241	-138.069	-44.253	-103.007	-106.08	-30.2904	-97.726	-121.363	-20.4335	-67.5294	-181.817	-36.976	-68.3343	-191.578	-41.5574	-33.9242	-195.006	-4.54561	-47.5705	
129	1.075	-175.726	25.2279	-33.0797	-171.203	43.4812	-56.2643	-170.475	60.6873	-88.836	-164.635	71.4307	-104.954	-163.169	18.005	-115.964	-128.115	21.2516	-119.254	-127.031	23.6566	-86.5551	-150.834	-7.53174	-120.626	-116.332	2.42163	-113.484	-124.32	2.52468	-74.4362	-138.774	-25.2746	-117.509	-111.535	-16.6971	-108.097	-124.74	-11.3905	-73.5354	-138.84	-46.3499	-104.788	-109.798	-28.1745	-99.923	-120.972	-18.9834	-68.187	-184.589	-36.7318	-67.4717	-193.285	-38.7608	-34.2467	-195.247	-2.32892	-49.713	
130	1.08333	-174.706	26.3622	-34.9042	-171.827	46.6404	-58.8918	-166.888	61.8256	-89.0211	-161.995	73.2603	-109.177	-166.058	19.5242	-116.583	-131.99	18.7272	-125.109	-126.139	20.784	-88.2509	-154.856	-2.3018	-122.596	-119.634	1.15863	-119	-122.3	2.81375	-79.3413	-147.405	-26.4537	-117.603	-115.671	-13.086	-110.427	-125.947	-10.4771	-74.7551	-143.466	-42.3712	-107.309	-115.064	-29.3145	-104.471	-119.383	-22.0423	-72.1697	-187.655	-35.7309	-70.7002	-192.33	-37.5369	-34.3088	-196.137	-1.0837	-46.2752	
131	1.09167	-164.756	27.086	-30.6052	-157.512	47.6826	-54.5199	-150.242	63.755	-83.1544	-141.957	69.4077	-107.748	-163.328	22.5701	-117.159	-135.56	19.7429	-130.777	-117.691	14.0544	-98.9709	-157.298	0.826019	-124.777	-121.438	-1.15216	-123.898	-118.737	-3.84232	-82.3318	-152.077	-22.8417	-120.086	-119.454	-21.2324	-117.761	-120.006	-18.5491	-82.1425	-153.538	-38.5134	-107.742	-120.81	-35.4078	-110.1	-114.987	-29.3952	-75.6736	-190.119	-30.4392	-66.1867	-196.832	-29.2216	-33.0116	-192.276	4.15117	-43.5805	
132	1.1	-150.156	27.3212	-27.3763	-134.708	48.1207	-49.2116	-124.82	60.4025	-78.9322	-114.48	63.9169	-99.9059	-156.62	26.5144	-111.35	-132.027	16.9723	-131.5	-106.836	7.06544	-108.936	-155.647	7.27743	-123.153	-122.861	-5.55893	-128.841	-110.957	-13.0356	-89.0187	-156.661	-12.7244	-121.086	-125.883	-23.221	-124.062	-115.745	-22.7053	-90.5184	-161.815	-32.84	-107.844	-129.062	-36.549	-116.246	-115.579	-38.7497	-86.2858	-188.401	-17.1576	-65.1362	-195.493	-20.5198	-26.6773	-183.052	15.7203	-43.5917	
133	1.10833	-131.098	24.1211	-20.8854	-111.785	37.1452	-38.0991	-97.7495	46.9433	-68.5291	-86.8669	52.5594	-95.0826	-143.966	33.8941	-102.525	-127.355	20.8495	-128.85	-100.586	-2.21494	-119.35	-153.15	15.3147	-116.358	-124.084	0.532888	-133.067	-106.758	-24.7514	-107.017	-165.387	-6.8255	-115.449	-137.044	-16.1605	-130.939	-115.398	-30.9451	-102.78	-171.664	-26.3979	-105.574	-144.998	-35.4585	-124.488	-121.422	-43.2581	-105.131	-187.522	-6.07746	-54.6781	-192.116	-11.0771	-22.6421	-170.675	18.6808	-33.2351	
134	1.11667	-118.553	11.5774	-14.1638	-97.664	22.386	-37.4945	-79.7562	31.4052	-63.8627	-67.2093	33.8483	-86.1114	-131.67	33.9084	-96.304	-114.631	24.2838	-127.511	-102.858	-4.78715	-131.887	-145.438	23.2537	-109.8	-129.284	5.87193	-136.399	-105.022	-27.3887	-125.784	-165.476	4.57845	-110.072	-144.128	-7.35127	-133.994	-121.251	-35.8348	-122.832	-177.026	-13.8477	-103.05	-154.523	-22.8622	-126.232	-130.029	-40.5955	-121.665	-179.803	1.32381	-53.3908	-184.634	0.152593	-20.2711	-156.027	23.0669	-28.5356	
135	1.125	-111.878	2.13523	-9.48554	-87.4424	8.22285	-29.9747	-67.5625	15.346	-59.9587	-51.7126	17.4987	-80.1594	-120.212	30.3019	-96.4518	-112.257	21.5523	-126.095	-103.143	-4.43688	-142.739	-140.731	23.963	-105.224	-128.46	11.6013	-135.556	-115.625	-28.3711	-147.206	-159.348	12.5328	-106.038	-151.191	-0.406541	-136.158	-129.809	-26.6829	-142.937	-178.228	-8.16602	-92.3055	-168.278	-14.4496	-126.54	-149.559	-32.2117	-139.449	-174.175	6.83785	-46.1256	-182.606	0.886465	-17.531	-146.383	19.7101	-24.1282	
136	1.13333	-110.861	-5.41988	-15.0826	-83.7398	-1.76323	-32.9643	-61.8344	0.518704	-55.3872	-45.8394	1.62225	-77.8614	-112.858	24.7911	-95.3407	-107.374	20.6608	-124.239	-102.403	2.60357	-147.97	-137.124	23.4091	-104.281	-128.403	14.0393	-137.832	-119.197	-14.2276	-161.902	-161.876	13.3367	-101.522	-156.072	9.75834	-130.572	-143.059	-13.9336	-156.798	-181.645	-1.90765	-93.9175	-180.784	-6.28061	-122.619	-166.228	-18.4115	-148.518	-170.038	7.51325	-41.9854	-178.898	4.58714	-13.5205	-142.657	16.355	-24.1958	
